<svg xml:space="preserve"
     xmlns="http://www.w3.org/2000/svg"
     xmlns:xlink="http://www.w3.org/1999/xlink"
     xmlns:html="http://www.w3.org/1999/xhtml"
id="altered-carbon-02-downloads-by-day-day" x="0px" y="0px"
width="1920.000000px" height="1080.000000px"
viewBox="0 0 1920.000000 1080.000000" enable-background="new 0 0 1920.000000 1080.000000" role="img">
<title>
altered-carbon-02-downloads-by-day-day
</title>
<desc>
Daily series for altered-carbon-02: upeers_total solid, useeds_total dashed.
</desc>
<title>
altered-carbon-02-downloads-by-day-day
</title>
 <g id="annotations">
<text x="960.000000" y="126.000000" font-family="Atkinson Hyperlegible" font-size="26.000000pt" text-anchor="middle" text-align="center" font-weight="600" font-style="normal"  style="fill:rgb(118,118,118); fill-opacity:1; stroke:rgb(118,118,118); stroke-opacity:0; stroke-width:0.5"> altered-carbon-02 downloads by day</text>
 <g id="axes-lines">
<text x="960.000000" y="1007.000000" font-family="Atkinson Hyperlegible" font-size="18.000000pt" text-anchor="middle" text-align="center" font-weight="500" font-style="normal"  style="fill:rgb(118,118,118); fill-opacity:1; stroke:rgb(118,118,118); stroke-opacity:0; stroke-width:0.5"> DAY</text>
<text x="73.000000" y="540.000000" font-family="Atkinson Hyperlegible" font-size="18.000000pt" text-anchor="middle" text-align="center" dominant-baseline="central" font-weight="500" font-style="normal"  style="fill:rgb(118,118,118); fill-opacity:1; stroke:rgb(118,118,118); stroke-opacity:0; stroke-width:0.5" transform="rotate(-90,73,540)"> DOWNLOADERS</text>
 </g>
 <g id="tic-y-label-lines">
<line x1="218.000000" y1="779.734440" x2="1702.000000" y2="779.734440" style="fill:rgb(0,0,255); fill-opacity:0; stroke:rgb(242,242,242); stroke-opacity:1; stroke-width:4" />
<line x1="218.000000" y1="711.734440" x2="1702.000000" y2="711.734440" style="fill:rgb(0,0,255); fill-opacity:0; stroke:rgb(242,242,242); stroke-opacity:1; stroke-width:4" />
<line x1="218.000000" y1="643.734440" x2="1702.000000" y2="643.734440" style="fill:rgb(0,0,255); fill-opacity:0; stroke:rgb(242,242,242); stroke-opacity:1; stroke-width:4" />
<line x1="218.000000" y1="575.734440" x2="1702.000000" y2="575.734440" style="fill:rgb(0,0,255); fill-opacity:0; stroke:rgb(242,242,242); stroke-opacity:1; stroke-width:4" />
<line x1="218.000000" y1="507.734440" x2="1702.000000" y2="507.734440" style="fill:rgb(0,0,255); fill-opacity:0; stroke:rgb(242,242,242); stroke-opacity:1; stroke-width:4" />
<line x1="218.000000" y1="439.734440" x2="1702.000000" y2="439.734440" style="fill:rgb(0,0,255); fill-opacity:0; stroke:rgb(242,242,242); stroke-opacity:1; stroke-width:4" />
<line x1="218.000000" y1="371.734440" x2="1702.000000" y2="371.734440" style="fill:rgb(0,0,255); fill-opacity:0; stroke:rgb(242,242,242); stroke-opacity:1; stroke-width:4" />
<line x1="218.000000" y1="303.734440" x2="1702.000000" y2="303.734440" style="fill:rgb(0,0,255); fill-opacity:0; stroke:rgb(242,242,242); stroke-opacity:1; stroke-width:4" />
<line x1="218.000000" y1="235.734440" x2="1702.000000" y2="235.734440" style="fill:rgb(0,0,255); fill-opacity:0; stroke:rgb(242,242,242); stroke-opacity:1; stroke-width:4" />
<line x1="218.000000" y1="167.734440" x2="1702.000000" y2="167.734440" style="fill:rgb(0,0,255); fill-opacity:0; stroke:rgb(242,242,242); stroke-opacity:1; stroke-width:4" />
 </g>
 <g id="tic-x-labels">
<text x="200.000000" y="898.000000" font-family="Atkinson Hyperlegible" font-size="14.000000pt" text-anchor="middle" text-align="center" dominant-baseline="central" font-weight="400" font-style="normal"  style="fill:rgb(118,118,118); fill-opacity:1; stroke:rgb(118,118,118); stroke-opacity:0; stroke-width:0.5"> 1</text>
<text x="275.580110" y="898.000000" font-family="Atkinson Hyperlegible" font-size="14.000000pt" text-anchor="middle" text-align="center" dominant-baseline="central" font-weight="400" font-style="normal"  style="fill:rgb(118,118,118); fill-opacity:1; stroke:rgb(118,118,118); stroke-opacity:0; stroke-width:0.5"> 10</text>
<text x="351.160221" y="898.000000" font-family="Atkinson Hyperlegible" font-size="14.000000pt" text-anchor="middle" text-align="center" dominant-baseline="central" font-weight="400" font-style="normal"  style="fill:rgb(118,118,118); fill-opacity:1; stroke:rgb(118,118,118); stroke-opacity:0; stroke-width:0.5"> 19</text>
<text x="426.740331" y="898.000000" font-family="Atkinson Hyperlegible" font-size="14.000000pt" text-anchor="middle" text-align="center" dominant-baseline="central" font-weight="400" font-style="normal"  style="fill:rgb(118,118,118); fill-opacity:1; stroke:rgb(118,118,118); stroke-opacity:0; stroke-width:0.5"> 28</text>
<text x="502.320442" y="898.000000" font-family="Atkinson Hyperlegible" font-size="14.000000pt" text-anchor="middle" text-align="center" dominant-baseline="central" font-weight="400" font-style="normal"  style="fill:rgb(118,118,118); fill-opacity:1; stroke:rgb(118,118,118); stroke-opacity:0; stroke-width:0.5"> 37</text>
<text x="577.900552" y="898.000000" font-family="Atkinson Hyperlegible" font-size="14.000000pt" text-anchor="middle" text-align="center" dominant-baseline="central" font-weight="400" font-style="normal"  style="fill:rgb(118,118,118); fill-opacity:1; stroke:rgb(118,118,118); stroke-opacity:0; stroke-width:0.5"> 46</text>
<text x="653.480663" y="898.000000" font-family="Atkinson Hyperlegible" font-size="14.000000pt" text-anchor="middle" text-align="center" dominant-baseline="central" font-weight="400" font-style="normal"  style="fill:rgb(118,118,118); fill-opacity:1; stroke:rgb(118,118,118); stroke-opacity:0; stroke-width:0.5"> 55</text>
<text x="729.060773" y="898.000000" font-family="Atkinson Hyperlegible" font-size="14.000000pt" text-anchor="middle" text-align="center" dominant-baseline="central" font-weight="400" font-style="normal"  style="fill:rgb(118,118,118); fill-opacity:1; stroke:rgb(118,118,118); stroke-opacity:0; stroke-width:0.5"> 64</text>
<text x="804.640884" y="898.000000" font-family="Atkinson Hyperlegible" font-size="14.000000pt" text-anchor="middle" text-align="center" dominant-baseline="central" font-weight="400" font-style="normal"  style="fill:rgb(118,118,118); fill-opacity:1; stroke:rgb(118,118,118); stroke-opacity:0; stroke-width:0.5"> 73</text>
<text x="880.220994" y="898.000000" font-family="Atkinson Hyperlegible" font-size="14.000000pt" text-anchor="middle" text-align="center" dominant-baseline="central" font-weight="400" font-style="normal"  style="fill:rgb(118,118,118); fill-opacity:1; stroke:rgb(118,118,118); stroke-opacity:0; stroke-width:0.5"> 82</text>
<text x="955.801105" y="898.000000" font-family="Atkinson Hyperlegible" font-size="14.000000pt" text-anchor="middle" text-align="center" dominant-baseline="central" font-weight="400" font-style="normal"  style="fill:rgb(118,118,118); fill-opacity:1; stroke:rgb(118,118,118); stroke-opacity:0; stroke-width:0.5"> 91</text>
<text x="1031.381215" y="898.000000" font-family="Atkinson Hyperlegible" font-size="14.000000pt" text-anchor="middle" text-align="center" dominant-baseline="central" font-weight="400" font-style="normal"  style="fill:rgb(118,118,118); fill-opacity:1; stroke:rgb(118,118,118); stroke-opacity:0; stroke-width:0.5"> 100</text>
<text x="1106.961326" y="898.000000" font-family="Atkinson Hyperlegible" font-size="14.000000pt" text-anchor="middle" text-align="center" dominant-baseline="central" font-weight="400" font-style="normal"  style="fill:rgb(118,118,118); fill-opacity:1; stroke:rgb(118,118,118); stroke-opacity:0; stroke-width:0.5"> 109</text>
<text x="1182.541436" y="898.000000" font-family="Atkinson Hyperlegible" font-size="14.000000pt" text-anchor="middle" text-align="center" dominant-baseline="central" font-weight="400" font-style="normal"  style="fill:rgb(118,118,118); fill-opacity:1; stroke:rgb(118,118,118); stroke-opacity:0; stroke-width:0.5"> 118</text>
<text x="1258.121547" y="898.000000" font-family="Atkinson Hyperlegible" font-size="14.000000pt" text-anchor="middle" text-align="center" dominant-baseline="central" font-weight="400" font-style="normal"  style="fill:rgb(118,118,118); fill-opacity:1; stroke:rgb(118,118,118); stroke-opacity:0; stroke-width:0.5"> 127</text>
<text x="1333.701657" y="898.000000" font-family="Atkinson Hyperlegible" font-size="14.000000pt" text-anchor="middle" text-align="center" dominant-baseline="central" font-weight="400" font-style="normal"  style="fill:rgb(118,118,118); fill-opacity:1; stroke:rgb(118,118,118); stroke-opacity:0; stroke-width:0.5"> 136</text>
<text x="1409.281768" y="898.000000" font-family="Atkinson Hyperlegible" font-size="14.000000pt" text-anchor="middle" text-align="center" dominant-baseline="central" font-weight="400" font-style="normal"  style="fill:rgb(118,118,118); fill-opacity:1; stroke:rgb(118,118,118); stroke-opacity:0; stroke-width:0.5"> 145</text>
<text x="1484.861878" y="898.000000" font-family="Atkinson Hyperlegible" font-size="14.000000pt" text-anchor="middle" text-align="center" dominant-baseline="central" font-weight="400" font-style="normal"  style="fill:rgb(118,118,118); fill-opacity:1; stroke:rgb(118,118,118); stroke-opacity:0; stroke-width:0.5"> 154</text>
<text x="1560.441989" y="898.000000" font-family="Atkinson Hyperlegible" font-size="14.000000pt" text-anchor="middle" text-align="center" dominant-baseline="central" font-weight="400" font-style="normal"  style="fill:rgb(118,118,118); fill-opacity:1; stroke:rgb(118,118,118); stroke-opacity:0; stroke-width:0.5"> 163</text>
<text x="1636.022099" y="898.000000" font-family="Atkinson Hyperlegible" font-size="14.000000pt" text-anchor="middle" text-align="center" dominant-baseline="central" font-weight="400" font-style="normal"  style="fill:rgb(118,118,118); fill-opacity:1; stroke:rgb(118,118,118); stroke-opacity:0; stroke-width:0.5"> 172</text>
<text x="1711.602210" y="898.000000" font-family="Atkinson Hyperlegible" font-size="14.000000pt" text-anchor="middle" text-align="center" dominant-baseline="central" font-weight="400" font-style="normal"  style="fill:rgb(118,118,118); fill-opacity:1; stroke:rgb(118,118,118); stroke-opacity:0; stroke-width:0.5"> 181</text>
 </g>
 <g id="tic-y-labels">
<text x="164.000000" y="849.734440" font-family="Atkinson Hyperlegible" font-size="14.000000pt" text-anchor="middle" text-align="center" dominant-baseline="central" font-weight="400" font-style="normal"  style="fill:rgb(118,118,118); fill-opacity:1; stroke:rgb(118,118,118); stroke-opacity:0; stroke-width:0.5"> 12k</text>
<text x="1756.000000" y="849.734440" font-family="Atkinson Hyperlegible" font-size="14.000000pt" text-anchor="middle" text-align="center" dominant-baseline="central" font-weight="400" font-style="normal"  style="fill:rgb(118,118,118); fill-opacity:1; stroke:rgb(118,118,118); stroke-opacity:0; stroke-width:0.5"> 12k</text>
<text x="164.000000" y="781.734440" font-family="Atkinson Hyperlegible" font-size="14.000000pt" text-anchor="middle" text-align="center" dominant-baseline="central" font-weight="400" font-style="normal"  style="fill:rgb(118,118,118); fill-opacity:1; stroke:rgb(118,118,118); stroke-opacity:0; stroke-width:0.5"> 38k</text>
<text x="1756.000000" y="781.734440" font-family="Atkinson Hyperlegible" font-size="14.000000pt" text-anchor="middle" text-align="center" dominant-baseline="central" font-weight="400" font-style="normal"  style="fill:rgb(118,118,118); fill-opacity:1; stroke:rgb(118,118,118); stroke-opacity:0; stroke-width:0.5"> 38k</text>
<text x="164.000000" y="713.734440" font-family="Atkinson Hyperlegible" font-size="14.000000pt" text-anchor="middle" text-align="center" dominant-baseline="central" font-weight="400" font-style="normal"  style="fill:rgb(118,118,118); fill-opacity:1; stroke:rgb(118,118,118); stroke-opacity:0; stroke-width:0.5"> 65k</text>
<text x="1756.000000" y="713.734440" font-family="Atkinson Hyperlegible" font-size="14.000000pt" text-anchor="middle" text-align="center" dominant-baseline="central" font-weight="400" font-style="normal"  style="fill:rgb(118,118,118); fill-opacity:1; stroke:rgb(118,118,118); stroke-opacity:0; stroke-width:0.5"> 65k</text>
<text x="164.000000" y="645.734440" font-family="Atkinson Hyperlegible" font-size="14.000000pt" text-anchor="middle" text-align="center" dominant-baseline="central" font-weight="400" font-style="normal"  style="fill:rgb(118,118,118); fill-opacity:1; stroke:rgb(118,118,118); stroke-opacity:0; stroke-width:0.5"> 91k</text>
<text x="1756.000000" y="645.734440" font-family="Atkinson Hyperlegible" font-size="14.000000pt" text-anchor="middle" text-align="center" dominant-baseline="central" font-weight="400" font-style="normal"  style="fill:rgb(118,118,118); fill-opacity:1; stroke:rgb(118,118,118); stroke-opacity:0; stroke-width:0.5"> 91k</text>
<text x="164.000000" y="577.734440" font-family="Atkinson Hyperlegible" font-size="14.000000pt" text-anchor="middle" text-align="center" dominant-baseline="central" font-weight="400" font-style="normal"  style="fill:rgb(118,118,118); fill-opacity:1; stroke:rgb(118,118,118); stroke-opacity:0; stroke-width:0.5"> 118k</text>
<text x="1756.000000" y="577.734440" font-family="Atkinson Hyperlegible" font-size="14.000000pt" text-anchor="middle" text-align="center" dominant-baseline="central" font-weight="400" font-style="normal"  style="fill:rgb(118,118,118); fill-opacity:1; stroke:rgb(118,118,118); stroke-opacity:0; stroke-width:0.5"> 118k</text>
<text x="164.000000" y="509.734440" font-family="Atkinson Hyperlegible" font-size="14.000000pt" text-anchor="middle" text-align="center" dominant-baseline="central" font-weight="400" font-style="normal"  style="fill:rgb(118,118,118); fill-opacity:1; stroke:rgb(118,118,118); stroke-opacity:0; stroke-width:0.5"> 144k</text>
<text x="1756.000000" y="509.734440" font-family="Atkinson Hyperlegible" font-size="14.000000pt" text-anchor="middle" text-align="center" dominant-baseline="central" font-weight="400" font-style="normal"  style="fill:rgb(118,118,118); fill-opacity:1; stroke:rgb(118,118,118); stroke-opacity:0; stroke-width:0.5"> 144k</text>
<text x="164.000000" y="441.734440" font-family="Atkinson Hyperlegible" font-size="14.000000pt" text-anchor="middle" text-align="center" dominant-baseline="central" font-weight="400" font-style="normal"  style="fill:rgb(118,118,118); fill-opacity:1; stroke:rgb(118,118,118); stroke-opacity:0; stroke-width:0.5"> 171k</text>
<text x="1756.000000" y="441.734440" font-family="Atkinson Hyperlegible" font-size="14.000000pt" text-anchor="middle" text-align="center" dominant-baseline="central" font-weight="400" font-style="normal"  style="fill:rgb(118,118,118); fill-opacity:1; stroke:rgb(118,118,118); stroke-opacity:0; stroke-width:0.5"> 171k</text>
<text x="164.000000" y="373.734440" font-family="Atkinson Hyperlegible" font-size="14.000000pt" text-anchor="middle" text-align="center" dominant-baseline="central" font-weight="400" font-style="normal"  style="fill:rgb(118,118,118); fill-opacity:1; stroke:rgb(118,118,118); stroke-opacity:0; stroke-width:0.5"> 197k</text>
<text x="1756.000000" y="373.734440" font-family="Atkinson Hyperlegible" font-size="14.000000pt" text-anchor="middle" text-align="center" dominant-baseline="central" font-weight="400" font-style="normal"  style="fill:rgb(118,118,118); fill-opacity:1; stroke:rgb(118,118,118); stroke-opacity:0; stroke-width:0.5"> 197k</text>
<text x="164.000000" y="305.734440" font-family="Atkinson Hyperlegible" font-size="14.000000pt" text-anchor="middle" text-align="center" dominant-baseline="central" font-weight="400" font-style="normal"  style="fill:rgb(118,118,118); fill-opacity:1; stroke:rgb(118,118,118); stroke-opacity:0; stroke-width:0.5"> 223k</text>
<text x="1756.000000" y="305.734440" font-family="Atkinson Hyperlegible" font-size="14.000000pt" text-anchor="middle" text-align="center" dominant-baseline="central" font-weight="400" font-style="normal"  style="fill:rgb(118,118,118); fill-opacity:1; stroke:rgb(118,118,118); stroke-opacity:0; stroke-width:0.5"> 223k</text>
<text x="164.000000" y="237.734440" font-family="Atkinson Hyperlegible" font-size="14.000000pt" text-anchor="middle" text-align="center" dominant-baseline="central" font-weight="400" font-style="normal"  style="fill:rgb(118,118,118); fill-opacity:1; stroke:rgb(118,118,118); stroke-opacity:0; stroke-width:0.5"> 250k</text>
<text x="1756.000000" y="237.734440" font-family="Atkinson Hyperlegible" font-size="14.000000pt" text-anchor="middle" text-align="center" dominant-baseline="central" font-weight="400" font-style="normal"  style="fill:rgb(118,118,118); fill-opacity:1; stroke:rgb(118,118,118); stroke-opacity:0; stroke-width:0.5"> 250k</text>
<text x="164.000000" y="169.734440" font-family="Atkinson Hyperlegible" font-size="14.000000pt" text-anchor="middle" text-align="center" dominant-baseline="central" font-weight="400" font-style="normal"  style="fill:rgb(118,118,118); fill-opacity:1; stroke:rgb(118,118,118); stroke-opacity:0; stroke-width:0.5"> 276k</text>
<text x="1756.000000" y="169.734440" font-family="Atkinson Hyperlegible" font-size="14.000000pt" text-anchor="middle" text-align="center" dominant-baseline="central" font-weight="400" font-style="normal"  style="fill:rgb(118,118,118); fill-opacity:1; stroke:rgb(118,118,118); stroke-opacity:0; stroke-width:0.5"> 276k</text>
 </g>
 </g>
 <g id="weekend-bands-altered-carbon-02 downloads by day">
<rect x="200.000000" y="200.000000" width="16.795580" height="680.000000"
 style="fill:rgb(148,148,148); fill-opacity:0.15; stroke:rgb(148,148,148); stroke-opacity:0; stroke-width:0" />
<rect x="258.784530" y="200.000000" width="16.795580" height="680.000000"
 style="fill:rgb(148,148,148); fill-opacity:0.15; stroke:rgb(148,148,148); stroke-opacity:0; stroke-width:0" />
<rect x="317.569061" y="200.000000" width="16.795580" height="680.000000"
 style="fill:rgb(148,148,148); fill-opacity:0.15; stroke:rgb(148,148,148); stroke-opacity:0; stroke-width:0" />
<rect x="376.353591" y="200.000000" width="16.795580" height="680.000000"
 style="fill:rgb(148,148,148); fill-opacity:0.15; stroke:rgb(148,148,148); stroke-opacity:0; stroke-width:0" />
<rect x="435.138122" y="200.000000" width="16.795580" height="680.000000"
 style="fill:rgb(148,148,148); fill-opacity:0.15; stroke:rgb(148,148,148); stroke-opacity:0; stroke-width:0" />
<rect x="493.922652" y="200.000000" width="16.795580" height="680.000000"
 style="fill:rgb(148,148,148); fill-opacity:0.15; stroke:rgb(148,148,148); stroke-opacity:0; stroke-width:0" />
<rect x="552.707182" y="200.000000" width="16.795580" height="680.000000"
 style="fill:rgb(148,148,148); fill-opacity:0.15; stroke:rgb(148,148,148); stroke-opacity:0; stroke-width:0" />
<rect x="611.491713" y="200.000000" width="16.795580" height="680.000000"
 style="fill:rgb(148,148,148); fill-opacity:0.15; stroke:rgb(148,148,148); stroke-opacity:0; stroke-width:0" />
<rect x="670.276243" y="200.000000" width="16.795580" height="680.000000"
 style="fill:rgb(148,148,148); fill-opacity:0.15; stroke:rgb(148,148,148); stroke-opacity:0; stroke-width:0" />
<rect x="729.060773" y="200.000000" width="16.795580" height="680.000000"
 style="fill:rgb(148,148,148); fill-opacity:0.15; stroke:rgb(148,148,148); stroke-opacity:0; stroke-width:0" />
<rect x="787.845304" y="200.000000" width="16.795580" height="680.000000"
 style="fill:rgb(148,148,148); fill-opacity:0.15; stroke:rgb(148,148,148); stroke-opacity:0; stroke-width:0" />
<rect x="846.629834" y="200.000000" width="16.795580" height="680.000000"
 style="fill:rgb(148,148,148); fill-opacity:0.15; stroke:rgb(148,148,148); stroke-opacity:0; stroke-width:0" />
<rect x="905.414365" y="200.000000" width="16.795580" height="680.000000"
 style="fill:rgb(148,148,148); fill-opacity:0.15; stroke:rgb(148,148,148); stroke-opacity:0; stroke-width:0" />
<rect x="964.198895" y="200.000000" width="16.795580" height="680.000000"
 style="fill:rgb(148,148,148); fill-opacity:0.15; stroke:rgb(148,148,148); stroke-opacity:0; stroke-width:0" />
<rect x="1022.983425" y="200.000000" width="16.795580" height="680.000000"
 style="fill:rgb(148,148,148); fill-opacity:0.15; stroke:rgb(148,148,148); stroke-opacity:0; stroke-width:0" />
<rect x="1081.767956" y="200.000000" width="16.795580" height="680.000000"
 style="fill:rgb(148,148,148); fill-opacity:0.15; stroke:rgb(148,148,148); stroke-opacity:0; stroke-width:0" />
<rect x="1140.552486" y="200.000000" width="16.795580" height="680.000000"
 style="fill:rgb(148,148,148); fill-opacity:0.15; stroke:rgb(148,148,148); stroke-opacity:0; stroke-width:0" />
<rect x="1199.337017" y="200.000000" width="16.795580" height="680.000000"
 style="fill:rgb(148,148,148); fill-opacity:0.15; stroke:rgb(148,148,148); stroke-opacity:0; stroke-width:0" />
<rect x="1258.121547" y="200.000000" width="16.795580" height="680.000000"
 style="fill:rgb(148,148,148); fill-opacity:0.15; stroke:rgb(148,148,148); stroke-opacity:0; stroke-width:0" />
<rect x="1316.906077" y="200.000000" width="16.795580" height="680.000000"
 style="fill:rgb(148,148,148); fill-opacity:0.15; stroke:rgb(148,148,148); stroke-opacity:0; stroke-width:0" />
<rect x="1375.690608" y="200.000000" width="16.795580" height="680.000000"
 style="fill:rgb(148,148,148); fill-opacity:0.15; stroke:rgb(148,148,148); stroke-opacity:0; stroke-width:0" />
<rect x="1434.475138" y="200.000000" width="16.795580" height="680.000000"
 style="fill:rgb(148,148,148); fill-opacity:0.15; stroke:rgb(148,148,148); stroke-opacity:0; stroke-width:0" />
<rect x="1493.259669" y="200.000000" width="16.795580" height="680.000000"
 style="fill:rgb(148,148,148); fill-opacity:0.15; stroke:rgb(148,148,148); stroke-opacity:0; stroke-width:0" />
<rect x="1552.044199" y="200.000000" width="16.795580" height="680.000000"
 style="fill:rgb(148,148,148); fill-opacity:0.15; stroke:rgb(148,148,148); stroke-opacity:0; stroke-width:0" />
<rect x="1610.828729" y="200.000000" width="16.795580" height="680.000000"
 style="fill:rgb(148,148,148); fill-opacity:0.15; stroke:rgb(148,148,148); stroke-opacity:0; stroke-width:0" />
<rect x="1669.613260" y="200.000000" width="16.795580" height="680.000000"
 style="fill:rgb(148,148,148); fill-opacity:0.15; stroke:rgb(148,148,148); stroke-opacity:0; stroke-width:0" />
 </g>
 <g id="polyline-altered-carbon-02 downloads by day">
<polyline points="200,278.286 208.398,200 216.796,239.361 225.193,267.016 233.591,203.145 241.989,295.558 250.387,276.451 258.785,415.782 267.182,558.328 275.58,602.106 283.978,357.494 292.376,304.117 300.773,346.944 309.171,460.267 317.569,402.211 325.967,312.192 334.365,487.568 342.762,387.719 351.16,456.793 359.558,493.226 367.956,416.51 376.354,401.347 384.751,461.323 393.149,432.35 401.547,243.496 409.945,356.41 418.343,428.553 426.74,354.473 435.138,340.801 443.536,377.269 451.934,679.696 460.331,451.665 468.729,462.767 477.127,484.605 485.525,295.645 493.923,428.332 502.32,429.57 510.718,368.708 519.116,368.165 527.514,370.55 535.912,330.975 544.309,388.012 552.707,572.961 561.105,687.625 569.503,696.133 577.901,420.246 586.298,385.075 594.696,378.009 603.094,424.192 611.492,388.834 619.89,400.71 628.287,422.933 636.685,483.896 645.083,466.193 653.481,443.461 661.878,363.399 670.276,411.456 678.674,400.343 687.072,431.24 695.47,410.466 703.867,407.28 712.265,374.011 720.663,360.745 729.061,432.109 737.459,431.86 745.856,342.671 754.254,366.387 762.652,442.813 771.05,444.527 779.448,495.6 787.845,527.551 796.243,542.297 804.641,491.27 813.039,507.823 821.436,552.832 829.834,556.355 838.232,506.857 846.63,536.385 855.028,545.052 863.425,473.703 871.823,523.874 880.221,522.093 888.619,502.152 897.017,522.78 905.414,556.994 913.812,610.621 922.21,567.234 930.608,572.743 939.006,644.931 947.403,687.546 955.801,708.71 964.199,707.96 972.597,734.543 980.994,697.59 989.392,701.708 997.79,727.393 1006.19,734.43 1014.59,736.73 1022.98,768.748 1031.38,780.37 1039.78,753.023 1048.18,768.494 1056.57,779.401 1064.97,768.013 1073.37,786.197 1081.77,783.846 1090.17,780.452 1098.56,767.738 1106.96,759.141 1115.36,769.835 1123.76,766.718 1132.15,726.948 1140.55,741.943 1148.95,748.382 1157.35,655.26 1165.75,688.743 1174.14,701.878 1182.54,675.192 1190.94,709.951 1199.34,714.055 1207.73,642.996 1216.13,677.399 1224.53,676.484 1232.93,600.112 1241.33,717.528 1249.72,671.245 1258.12,637.942 1266.52,716.645 1274.92,693.245 1283.31,555.401 1291.71,651.779 1300.11,802.518 1308.51,799.646 1316.91,802.094 1325.3,798.017 1333.7,801.388 1342.1,567.819 1350.5,693.265 1358.9,788.869 1367.29,795.409 1375.69,804.178 1384.09,806.02 1392.49,691.022 1400.88,659.593 1409.28,809.941 1417.68,811.807 1426.08,807.588 1434.48,808.135 1442.87,731.031 1451.27,750.739 1459.67,812.328 1468.07,748.447 1476.46,536.336 1484.86,263.054 1493.26,324.017 1501.66,444.609 1510.06,513.098 1518.45,374.26 1526.85,453.479 1535.25,472.493 1543.65,432.512 1552.04,455.373 1560.44,539.34 1568.84,565.612 1577.24,464.332 1585.64,460.899 1594.03,498.768 1602.43,467.626 1610.83,552.452 1619.23,566.504 1627.62,562.76 1636.02,536.57 1644.42,539.548 1652.82,551.748 1661.22,521.739 1669.61,504.611 1678.01,529.691 1686.41,463.461 1694.81,491.327 1703.2,497.779 1711.6,541.095 1720,498.007 "  style="fill:rgb(0,0,255); fill-opacity:0; stroke:rgb(0,0,255); stroke-opacity:1; stroke-width:4" />
 </g>
 <g id="polyline-altered-carbon-02 downloads by day uploaders">
<polyline points="200,652.804 208.398,631.786 216.796,669.259 225.193,702.664 233.591,717.585 241.989,735.527 250.387,740.826 258.785,756.988 267.182,805.193 275.58,824.726 283.978,758.622 292.376,769.562 300.773,782.602 309.171,790.737 317.569,788.412 325.967,781.056 334.365,783.399 342.762,794.504 351.16,810.879 359.558,804.502 367.956,812.231 376.354,812.49 384.751,810.512 393.149,812.75 401.547,803.307 409.945,807.863 418.343,819.22 426.74,819.276 435.138,826.53 443.536,823.29 451.934,859.557 460.331,833.596 468.729,839.22 477.127,828.231 485.525,823.842 493.923,833.58 502.32,827.55 510.718,828.287 519.116,830.952 527.514,837.979 535.912,840.551 544.309,840.554 552.707,842.185 561.105,843.051 569.503,844.621 577.901,843.465 586.298,846.595 594.696,849.511 603.094,842.501 611.492,848.098 619.89,847.63 628.287,849.323 636.685,851.741 645.083,853.185 653.481,847.851 661.878,848.324 670.276,848.01 678.674,848.519 687.072,850.505 695.47,850.716 703.867,851.399 712.265,853.717 720.663,852.815 729.061,852.959 737.459,852.825 745.856,853.077 754.254,853.023 762.652,856.207 771.05,857.782 779.448,858.535 787.845,859.635 796.243,859.478 804.641,859.059 813.039,859.593 821.436,859.547 829.834,860.737 838.232,861.389 846.63,862.122 855.028,863.684 863.425,864.177 871.823,864.853 880.221,866.125 888.619,865.413 897.017,867.53 905.414,867.69 913.812,867.69 922.21,867.574 930.608,867.623 939.006,865.855 947.403,867.235 955.801,867.253 964.199,867.248 972.597,867.875 980.994,867.384 989.392,867.446 997.79,869.319 1006.19,868.931 1014.59,868.378 1022.98,870.005 1031.38,870.478 1039.78,869.853 1048.18,870.097 1056.57,871.896 1064.97,870.986 1073.37,871.39 1081.77,871.793 1090.17,872.428 1098.56,870.83 1106.96,872.209 1115.36,872.947 1123.76,873.343 1132.15,873.068 1140.55,872.179 1148.95,872.965 1157.35,870.077 1165.75,870.164 1174.14,868.756 1182.54,870.467 1190.94,871.092 1199.34,870.511 1207.73,871.796 1216.13,869.586 1224.53,869.779 1232.93,868.823 1241.33,870.239 1249.72,871.649 1258.12,871.395 1266.52,872.348 1274.92,871.079 1283.31,868.926 1291.71,870.457 1300.11,871.058 1308.51,871.988 1316.91,872.531 1325.3,871.747 1333.7,870.668 1342.1,870.126 1350.5,871.765 1358.9,872.127 1367.29,871.665 1375.69,872.898 1384.09,872.77 1392.49,872.51 1400.88,872.633 1409.28,873.309 1417.68,874.052 1426.08,873.669 1434.48,874.314 1442.87,874.897 1451.27,873.427 1459.67,872.276 1468.07,873.404 1476.46,875.393 1484.86,876.657 1493.26,877.266 1501.66,874.987 1510.06,875.087 1518.45,873.422 1526.85,873.936 1535.25,873.679 1543.65,874.735 1552.04,876.292 1560.44,876.1 1568.84,875.408 1577.24,873.682 1585.64,876.033 1594.03,875.599 1602.43,877.775 1610.83,878.271 1619.23,878.163 1627.62,879.381 1636.02,880 1644.42,878.851 1652.82,878.841 1661.22,877.808 1669.61,879.37 1678.01,879.658 1686.41,877.865 1694.81,875.663 1703.2,875.2 1711.6,876.488 1720,876.634 " stroke-dasharray="5 15"  style="fill:rgb(0,0,255); fill-opacity:0; stroke:rgb(0,0,255); stroke-opacity:1; stroke-width:4" />
 </g>
</svg>
